<?xml version="1.0" encoding="utf-8"?>
<!-- Generator: Adobe Illustrator 25.0.0, SVG Export Plug-In . SVG Version: 6.00 Build 0)  -->
<svg version="1.1" xmlns="http://www.w3.org/2000/svg" xmlns:xlink="http://www.w3.org/1999/xlink" x="0px" y="0px"
	 viewBox="0 0 315.7 90.8" style="enable-background:new 0 0 315.7 90.8;" xml:space="preserve">
<style type="text/css">
	.st0{display:none;}
	.st1{display:inline;fill:#307481;}
	.st2{fill:#FFFFFF;stroke:#FFFFFF;stroke-width:2;stroke-linecap:round;stroke-miterlimit:10;}
	.st3{font-family:'HaarlemDecoDemo';}
	.st4{font-size:80.7666px;}
	.st5{fill:#FFFFFF;}
	.st6{font-family:'dapurandes';}
	.st7{font-size:23.5279px;}
</style>
<g id="圖層_1" class="st0">
	<rect x="-40" y="-61.3" class="st1" width="387.9" height="203.9"/>
</g>
<g id="圖層_2">
	<text transform="matrix(0.9943 0 0 1 116.6344 73.1141)" class="st2 st3 st4">L U C A</text>
	<path class="st5" d="M75.1,46.6c-0.6-0.7-1.3-1.4-1.9-2.1c0.4-0.5,0.9-0.9,1.3-1.4c6.7-7.7,9.4-15.3,6.7-19.8
		c-2.6-4.3-10.1-5.6-19.5-3.6c-0.9,0.2-1.9,0.4-2.8,0.6c-0.2-0.6-0.4-1.2-0.6-1.8C55,9,49.8,2.8,44.5,2.9c-5,0.1-9.9,6-12.9,15.1
		c-0.3,0.9-0.6,1.8-0.8,2.7c-1.1-0.3-2.2-0.5-3.2-0.7c-9.3-1.7-17.2-0.6-19.7,3.8c-2.5,4.5,0.8,12.4,7.3,19.7
		c0.5,0.6,1.1,1.2,1.6,1.7c-0.7,0.7-1.4,1.5-2.1,2.3C8.8,54.8,6.4,61.8,9,66.2c2.6,4.5,10.6,5.9,20.1,3.8c0.8-0.2,1.5-0.3,2.3-0.6
		c0.3,1,0.6,2,1,2.9c3.2,8.8,8.1,14.5,13.2,14.4c5.2-0.1,10.3-6.2,13.4-15.5c0.2-0.7,0.5-1.4,0.7-2.2c0.5,0.1,1.1,0.2,1.6,0.3
		c9.9,1.9,18.5,0.9,21.1-3.7C84.8,61.3,81.5,53.8,75.1,46.6L75.1,46.6z M62.4,23.2c8.1-1.7,14.1-0.7,15.7,1.9
		c1.7,2.8-0.6,9-6.3,15.6c-0.4,0.4-0.8,0.9-1.2,1.3c-2.8-2.5-5.8-4.9-8.9-7c-0.4-3.8-1-7.5-1.8-11.2C60.7,23.6,61.5,23.4,62.4,23.2z
		 M28,45c0,1.7,0.1,3.4,0.2,5.1c-2.1-1.5-4.2-3.2-6.1-4.9c1.8-1.7,3.8-3.4,6-5.1C28,41.7,28,43.4,28,45L28,45z M33.4,25.1
		c2.4,0.7,4.8,1.6,7.3,2.6c-1.4,0.8-2.9,1.6-4.3,2.4c-1.4,0.8-2.8,1.7-4.2,2.6C32.5,30,32.9,27.5,33.4,25.1L33.4,25.1z M31.8,37.3
		c2.1-1.5,4.2-2.8,6.4-4.1c2.2-1.3,4.4-2.5,6.7-3.7c2.3,1.1,4.5,2.2,6.8,3.5c2.3,1.3,4.5,2.6,6.5,4c0.2,2.5,0.3,5.1,0.4,7.6
		c0,2.5,0,5.1-0.1,7.6c-2.1,1.5-4.3,2.8-6.5,4.2c-2.2,1.3-4.4,2.5-6.7,3.7c-2.3-1.1-4.5-2.3-6.8-3.5S34,54,32,52.6
		c-0.2-2.6-0.4-5.1-0.4-7.7S31.6,39.9,31.8,37.3L31.8,37.3z M53.8,59.5c1.5-0.9,2.9-1.8,4.3-2.7c-0.3,2.6-0.6,5.2-1.2,7.8
		c-2.5-0.8-5-1.6-7.5-2.7C51,61.2,52.4,60.4,53.8,59.5L53.8,59.5z M62.2,49.6c0-1.7,0.1-3.3,0-5c0-1.6-0.1-3.3-0.2-4.9
		c2.2,1.6,4.2,3.3,6,4.9C66.2,46.4,64.2,48,62.2,49.6z M56.4,24.8c0.6,2.5,1.1,5.1,1.4,7.6c-2.8-1.7-5.7-3.4-8.6-4.9
		C51.6,26.5,54,25.6,56.4,24.8z M44.5,6.4c3.2-0.1,7.5,5,10.4,13.3c0.2,0.5,0.4,1.1,0.5,1.6c-3.6,1.2-7.1,2.6-10.6,4.2
		c-3.4-1.6-7-2.9-10.6-4c0.2-0.8,0.5-1.7,0.8-2.5C37.6,11.3,41.5,6.5,44.5,6.4L44.5,6.4z M19.4,42.7c-0.5-0.5-1-1-1.5-1.6
		c-2.5-2.7-5.2-6.2-6.6-9.7c-0.9-1.8-1-4-0.3-5.9c1.5-2.7,8-3.5,15.9-2.1c1,0.2,2,0.4,3,0.6c-0.8,3.7-1.3,7.5-1.6,11.2
		C25.2,37.6,22.2,40.1,19.4,42.7z M28.4,66.5c-3.6,0.8-7.4,1-11.1,0.5c-2-0.1-3.9-1.1-5.2-2.7c-1.6-2.6,0.4-8.3,5.6-14.5
		c0.6-0.7,1.2-1.4,1.9-2.1c2.9,2.5,5.9,4.9,9.1,7c0.4,3.8,1,7.6,1.9,11.3C29.8,66.2,29.1,66.3,28.4,66.5L28.4,66.5z M33.9,65
		c-0.6-2.4-1.1-5-1.4-7.7c1.4,0.8,2.8,1.7,4.2,2.5c1.5,0.8,3,1.6,4.5,2.4C38.8,63.2,36.4,64.1,33.9,65z M50.5,80
		c-1.1,1.7-2.9,2.9-5,3.2c-3.1,0-7-4.5-9.8-12c-0.3-0.9-0.6-1.8-0.9-2.7c3.6-1.2,7.1-2.7,10.5-4.3c3.5,1.6,7.1,2.9,10.8,4
		c-0.2,0.7-0.4,1.3-0.6,2C54.5,73.7,52.7,77,50.5,80L50.5,80z M61.9,65.9c-0.5-0.1-1-0.2-1.4-0.3c0.8-3.7,1.3-7.5,1.5-11.4
		c3.1-2.2,6-4.6,8.7-7.1c0.6,0.6,1.2,1.3,1.8,1.9c5.5,6.1,8.3,12.3,6.8,14.9C77.6,66.7,70.5,67.5,61.9,65.9z"/>
	<text transform="matrix(1 0 0 1 40.9887 54.5304)" class="st5 st6 st7">L</text>
	<circle class="st5" cx="8.6" cy="23.1" r="5"/>
	<circle class="st5" cx="80.4" cy="65.8" r="4.7"/>
</g>
</svg>
