<?xml version="1.0" encoding="utf-8"?>
<!-- Generator: Adobe Illustrator 25.0.0, SVG Export Plug-In . SVG Version: 6.00 Build 0)  -->
<svg version="1.1" id="圖層_1" xmlns="http://www.w3.org/2000/svg" xmlns:xlink="http://www.w3.org/1999/xlink" x="0px" y="0px"
	 viewBox="0 0 724.8 588.2" style="enable-background:new 0 0 724.8 588.2;" xml:space="preserve">
<style type="text/css">
	.st0{fill:#F2F2F2;}
	.st1{fill:#FFFFFF;}
	.st2{fill:#CCCCCC;}
	.st3{fill:#317985;}
	.st4{fill:#3F3D56;}
</style>
<path class="st0" d="M692.8,359.3c-0.8,1.5-1.6,3-2.5,4.5c-32.8,57.2-109.2,92.7-238,73.9c-73.1-11.2-104.3,29.8-134.4,71.9
	c-0.5,0.7-1,1.5-1.6,2.2c-31.6,44.1-62.9,88.2-141,73.6c-82.9-13.1-134-80.4-142-152.3c-0.1-0.9-0.2-1.8-0.3-2.6
	c-4.4-46.6,9.3-94.8,44.4-131.2c21.2-22,51.3-33.7,82.3-33.3c9.4,0.2,18.7-0.5,27.9-2.1c2-0.4,4-0.8,5.9-1.2
	c39.6-9,57.8-35.9,69-68.7c0.3-0.8,0.5-1.6,0.8-2.3c25.7-78.2,13.8-188,153.4-171.9C541.6,28.8,633.3,98.1,678.3,178
	c0.4,0.8,0.9,1.6,1.3,2.4c12.4,22.2,21.2,46.1,26.1,71c0.3,1.4,0.5,2.8,0.8,4.2C712.9,292.8,708.7,328.9,692.8,359.3z"/>
<path class="st1" d="M679.6,180.4c-9,10.7-19.1,20.3-30.1,28.8c-43.1,33-97.6,50.9-151.4,54.7c-27.7,1.9-55.4,0.1-82.6-5.6
	c-27.6-5.8-53.9-16-79.4-27.9c-24.8-11.6-48.9-24.6-73.5-36.5c0.3-0.8,0.5-1.6,0.8-2.3c26.9,12.9,53.2,27.2,80.4,39.5
	c25.6,11.6,52.1,21.1,79.8,26.1c27.7,5,55.9,6.1,83.9,3.3c53.7-5.4,108.2-25.2,149.5-60.6c7.7-6.6,14.9-14,21.4-21.8
	C678.7,178.8,679.2,179.6,679.6,180.4z"/>
<path class="st2" d="M493.2,0.8c-0.1,0-0.1,0-0.2,0C426.8,5,374.9,60.2,374.9,126.7c0,66.4,51.9,121.7,118.1,125.8
	c0.8,0.1,1.6-0.2,2.2-0.8c0.6-0.5,0.9-1.3,0.9-2.1V3.7C496.1,2.1,494.8,0.8,493.2,0.8L493.2,0.8z"/>
<path class="st2" d="M594.4,210.7c-1,0-1.9-0.4-2.6-1.1L506.2,124c-0.7-0.7-1.1-1.6-1.1-2.6V3.7c0-1,0.4-2,1.2-2.7
	c0.7-0.7,1.8-1.1,2.8-1c66.6,4.2,118.9,59.8,118.9,126.6c0,30.4-10.9,59.7-30.7,82.7c-0.7,0.8-1.6,1.2-2.7,1.3
	C594.5,210.7,594.5,210.7,594.4,210.7z"/>
<path class="st3" d="M508.8,253.3c-0.9,0-1.9-0.4-2.5-1c-0.7-0.7-1.2-1.7-1.2-2.7V143.4c0-2,1.7-3.7,3.7-3.7c1,0,1.9,0.4,2.6,1.1
	l74.7,74.7c1.4,1.4,1.4,3.8,0,5.2c0,0-0.1,0.1-0.1,0.1c-21.3,19.1-48.4,30.6-76.9,32.4C509,253.3,508.9,253.3,508.8,253.3z"/>
<path class="st1" d="M706.5,255.7c-12,21.3-28.9,40-48.3,54.9c-43.1,33-97.6,50.9-151.4,54.7c-27.7,1.9-55.4,0.1-82.6-5.6
	c-27.6-5.8-53.9-16-79.4-27.9c-26-12.1-51.1-25.9-77-38.2c-25.8-12.3-52.4-22.9-80.2-29.7c2-0.4,4-0.8,5.9-1.2
	c1.8,0.5,3.6,1,5.4,1.5c54.4,15.2,102.4,45.2,153.4,68.3c25.6,11.6,52.1,21.1,79.8,26.1c27.7,5,55.9,6.1,83.9,3.3
	c53.7-5.4,108.2-25.2,149.5-60.6c16.3-14,29.9-30.8,40.1-49.7C706,252.9,706.3,254.3,706.5,255.7z"/>
<path class="st1" d="M166.7,442.3c53.6,15,100.9,44.3,151.2,67.3c-0.5,0.7-1,1.5-1.6,2.2c-1.3-0.6-2.5-1.2-3.8-1.8
	c-26-12.1-51.1-25.9-77-38.2c-26.4-12.6-53.5-23.3-81.9-30.2c-39.3-9.5-80-12.4-120.2-8.6c-0.1-0.9-0.2-1.8-0.3-2.6
	C77.9,426.2,123.2,430.2,166.7,442.3z"/>
<path class="st2" d="M480.9,386.2h-81.1c-2.4,0-4.4-2-4.4-4.4s2-4.4,4.4-4.4h81.1c2.4,0,4.4,2,4.4,4.4S483.3,386.2,480.9,386.2z"/>
<path class="st4" d="M375.6,390.6c-5.1,0-9.3-4.1-9.3-9.3c0-5.1,4.1-9.3,9.3-9.3c5.1,0,9.3,4.1,9.3,9.3
	C384.8,386.4,380.7,390.6,375.6,390.6z"/>
<path class="st2" d="M480.9,412.6h-81.1c-2.4,0-4.4-2-4.4-4.4s2-4.4,4.4-4.4h81.1c2.4,0,4.4,2,4.4,4.4S483.3,412.6,480.9,412.6z"/>
<path class="st4" d="M375.6,417c-5.1,0-9.3-4.1-9.3-9.3s4.1-9.3,9.3-9.3s9.3,4.1,9.3,9.3C384.8,412.9,380.7,417,375.6,417z"/>
<path class="st2" d="M480.9,439.1h-81.1c-2.4,0-4.4-2-4.4-4.4s2-4.4,4.4-4.4h81.1c2.4,0,4.4,2,4.4,4.4S483.3,439.1,480.9,439.1z"/>
<path class="st4" d="M375.6,443.5c-5.1,0-9.3-4.1-9.3-9.3c0-5.1,4.1-9.3,9.3-9.3c5.1,0,9.3,4.1,9.3,9.3
	C384.8,439.3,380.7,443.5,375.6,443.5z"/>
<path class="st4" d="M504.2,408.1h33.5c0.5,0,0.9-0.4,0.9-0.9v-207c0-0.5-0.4-0.9-0.9-0.9c-0.5,0-0.9,0.4-0.9,0.9v206.1h-32.6
	c-0.5,0-0.9,0.4-0.9,0.9C503.3,407.7,503.7,408.1,504.2,408.1C504.2,408.1,504.2,408.1,504.2,408.1z"/>
<path class="st2" d="M647.7,64.9L647.7,64.9c-6.3,0.5-11.7-4.2-12.2-10.4c-0.5-6.3,4.2-11.7,10.4-12.2c6.3-0.5,11.7,4.2,12.2,10.4
	S653.9,64.4,647.7,64.9z M647.5,63.2L647.5,63.2c5.3-0.4,9.2-5.1,8.8-10.4c-0.4-5.3-5.1-9.2-10.4-8.8c-5.3,0.4-9.2,5.1-8.8,10.4
	C637.6,59.6,642.2,63.6,647.5,63.2L647.5,63.2L647.5,63.2z"/>
<circle class="st2" cx="686.8" cy="28.8" r="7"/>
<circle class="st2" cx="721.1" cy="6.8" r="3.7"/>
<path class="st2" d="M594.3,288.5c-3.5,5.2-10.5,6.7-15.7,3.2c-5.2-3.5-6.7-10.5-3.2-15.7c3.5-5.2,10.5-6.7,15.7-3.2l0,0
	C596.3,276.2,597.7,283.2,594.3,288.5z M576.8,276.9c-2.9,4.4-1.7,10.4,2.7,13.3c4.4,2.9,10.4,1.7,13.3-2.7
	c2.9-4.4,1.7-10.4-2.7-13.3l0,0C585.7,271.3,579.7,272.5,576.8,276.9L576.8,276.9z"/>
<circle class="st2" cx="607.9" cy="323.2" r="7"/>
<circle class="st2" cx="627.4" cy="359.1" r="3.7"/>
<path class="st2" d="M312.3,97.7c-2.8-5.6-0.5-12.4,5.1-15.2s12.4-0.5,15.2,5.1c2.8,5.6,0.5,12.4-5.1,15.2l0,0l0,0
	C321.9,105.6,315.1,103.3,312.3,97.7z M331.1,88.4c-2.4-4.8-8.1-6.7-12.9-4.3c-4.8,2.4-6.7,8.1-4.3,12.9c2.4,4.8,8.1,6.7,12.9,4.3
	l0,0l0,0C331.5,98.9,333.4,93.1,331.1,88.4z"/>
<circle class="st2" cx="275.4" cy="92" r="7"/>
<circle class="st2" cx="234.6" cy="90.9" r="3.7"/>
</svg>
